<svg xmlns="http://www.w3.org/2000/svg" viewBox="0 0 200 200" width="200" height="200">
  <defs>
    <linearGradient id="brainGradient" x1="0%" y1="0%" x2="100%" y2="100%">
      <stop offset="0%" style="stop-color:#667eea;stop-opacity:1" />
      <stop offset="100%" style="stop-color:#764ba2;stop-opacity:1" />
    </linearGradient>
    <linearGradient id="eyeGradient" x1="0%" y1="0%" x2="100%" y2="100%">
      <stop offset="0%" style="stop-color:#f093fb;stop-opacity:1" />
      <stop offset="100%" style="stop-color:#f5576c;stop-opacity:1" />
    </linearGradient>
  </defs>
  
  <!-- Círculo exterior -->
  <circle cx="100" cy="100" r="95" fill="none" stroke="url(#brainGradient)" stroke-width="3" opacity="0.3"/>
  
  <!-- Ojo central -->
  <ellipse cx="100" cy="100" rx="50" ry="35" fill="url(#eyeGradient)" opacity="0.2"/>
  
  <!-- Iris -->
  <circle cx="100" cy="100" r="25" fill="url(#brainGradient)" opacity="0.8"/>
  
  <!-- Pupila -->
  <circle cx="100" cy="100" r="12" fill="#2d3748"/>
  
  <!-- Reflejo -->
  <circle cx="105" cy="95" r="5" fill="white" opacity="0.8"/>
  
  <!-- Líneas de exploración (radar) -->
  <path d="M 100 100 L 100 30" stroke="url(#brainGradient)" stroke-width="2" opacity="0.6"/>
  <path d="M 100 100 L 150 60" stroke="url(#brainGradient)" stroke-width="2" opacity="0.6"/>
  <path d="M 100 100 L 170 100" stroke="url(#brainGradient)" stroke-width="2" opacity="0.6"/>
  <path d="M 100 100 L 150 140" stroke="url(#brainGradient)" stroke-width="2" opacity="0.6"/>
  <path d="M 100 100 L 100 170" stroke="url(#brainGradient)" stroke-width="2" opacity="0.6"/>
  <path d="M 100 100 L 50 140" stroke="url(#brainGradient)" stroke-width="2" opacity="0.6"/>
  <path d="M 100 100 L 30 100" stroke="url(#brainGradient)" stroke-width="2" opacity="0.6"/>
  <path d="M 100 100 L 50 60" stroke="url(#brainGradient)" stroke-width="2" opacity="0.6"/>
  
  <!-- Puntos de detección -->
  <circle cx="100" cy="30" r="4" fill="url(#eyeGradient)"/>
  <circle cx="150" cy="60" r="4" fill="url(#eyeGradient)"/>
  <circle cx="170" cy="100" r="4" fill="url(#eyeGradient)"/>
  <circle cx="150" cy="140" r="4" fill="url(#eyeGradient)"/>
  <circle cx="100" cy="170" r="4" fill="url(#eyeGradient)"/>
  <circle cx="50" cy="140" r="4" fill="url(#eyeGradient)"/>
  <circle cx="30" cy="100" r="4" fill="url(#eyeGradient)"/>
  <circle cx="50" cy="60" r="4" fill="url(#eyeGradient)"/>
  
  <!-- Circuito neural (conexiones) -->
  <path d="M 30 100 Q 50 80 70 90" stroke="#667eea" stroke-width="1" fill="none" opacity="0.4"/>
  <path d="M 170 100 Q 150 120 130 110" stroke="#764ba2" stroke-width="1" fill="none" opacity="0.4"/>
  <path d="M 100 30 Q 120 50 110 70" stroke="#f093fb" stroke-width="1" fill="none" opacity="0.4"/>
  <path d="M 100 170 Q 80 150 90 130" stroke="#f5576c" stroke-width="1" fill="none" opacity="0.4"/>
</svg>
